<?xml version="1.0" standalone="no"?>
<!DOCTYPE svg PUBLIC "-//W3C//DTD SVG 20010904//EN"
 "http://www.w3.org/TR/2001/REC-SVG-20010904/DTD/svg10.dtd">
<svg version="1.0" xmlns="http://www.w3.org/2000/svg"
 width="500.000000pt" height="500.000000pt" viewBox="0 0 500.000000 500.000000"
 preserveAspectRatio="xMidYMid meet">

<g transform="translate(0.000000,500.000000) scale(0.100000,-0.100000)"
fill="#000000" stroke="none">
<path d="M1384 2850 c-35 -14 -64 -59 -64 -100 0 -28 12 -55 51 -113 59 -87
70 -136 46 -205 -10 -28 -11 -44 -4 -49 5 -3 7 -1 3 5 -3 5 -3 12 2 14 13 5
126 141 149 178 46 76 38 126 -32 210 -56 67 -95 83 -151 60z"/>
<path d="M1935 2698 c-4 -14 -55 -309 -55 -321 0 -4 60 -7 134 -7 130 0 134 1
140 23 17 63 12 67 -69 67 -68 0 -75 2 -75 20 0 17 8 19 78 22 l77 3 3 33 3
32 -70 0 c-69 0 -71 1 -71 25 0 25 1 25 79 25 l79 0 6 31 c12 61 17 59 -124
59 -96 0 -132 -3 -135 -12z"/>
<path d="M2375 2698 c-4 -14 -55 -309 -55 -321 0 -4 24 -7 54 -7 60 0 56 -6
72 95 3 22 8 49 11 60 6 19 6 19 13 -1 5 -11 11 -50 15 -87 l7 -67 44 0 44 0
42 85 c23 47 45 85 49 85 4 0 0 -33 -7 -72 -20 -103 -22 -98 41 -98 30 0 55 3
55 6 0 8 49 283 55 312 5 21 3 22 -73 22 l-78 0 -49 -100 c-28 -57 -52 -95
-56 -88 -3 7 -12 52 -19 101 l-12 87 -74 0 c-51 0 -76 -4 -79 -12z"/>
<path d="M3053 2690 c-44 -20 -83 -69 -83 -105 0 -49 40 -74 143 -90 29 -5 37
-10 35 -23 -4 -23 -76 -30 -84 -8 -5 12 -20 16 -60 16 -47 0 -54 -3 -54 -20 0
-11 13 -34 29 -52 24 -28 36 -32 90 -36 110 -8 201 48 201 123 0 43 -35 72
-98 81 -65 9 -87 21 -71 40 15 19 58 18 65 -1 5 -11 21 -15 60 -15 45 0 54 3
54 18 0 75 -130 117 -227 72z"/>
<path d="M1110 2637 c-57 -38 -75 -71 -75 -137 0 -44 5 -66 21 -87 28 -37 81
-73 110 -73 l24 0 0 141 c0 109 3 139 13 134 6 -4 3 1 -7 9 -18 15 -15 21 9
16 5 -1 7 2 3 6 -18 17 -67 13 -98 -9z"/>
</g>
</svg>
