<?xml version="1.0" standalone="no"?>
<!DOCTYPE svg PUBLIC "-//W3C//DTD SVG 20010904//EN"
 "http://www.w3.org/TR/2001/REC-SVG-20010904/DTD/svg10.dtd">
<svg version="1.0" xmlns="http://www.w3.org/2000/svg"
 width="500.000000pt" height="500.000000pt" viewBox="0 0 500.000000 500.000000"
 preserveAspectRatio="xMidYMid meet">

<g transform="translate(0.000000,500.000000) scale(0.100000,-0.100000)"
fill="#000000" stroke="none">
<path d="M1384 2850 c-35 -14 -64 -59 -64 -100 0 -28 12 -55 51 -113 59 -87
70 -136 46 -205 -10 -28 -11 -44 -4 -49 5 -3 7 -1 3 5 -3 5 -3 12 2 14 4 1 34
35 67 73 132 154 140 198 57 308 -53 70 -101 90 -158 67z"/>
<path d="M1110 2637 c-57 -38 -75 -71 -75 -137 0 -44 5 -66 21 -87 28 -37 81
-73 110 -73 l24 0 0 141 c0 109 3 139 13 134 6 -4 3 1 -7 9 -18 15 -15 21 9
16 5 -1 7 2 3 6 -18 17 -67 13 -98 -9z"/>
</g>
</svg>
